<svg width="15" height="20" viewBox="0 0 15 20" fill="none" xmlns="http://www.w3.org/2000/svg">
<path d="M7.49991 10.9091C6.82566 10.9091 6.16654 10.7091 5.60592 10.3345C5.0453 9.95993 4.60835 9.4275 4.35032 8.80457C4.0923 8.18164 4.02479 7.49619 4.15633 6.83489C4.28787 6.17359 4.61255 5.56615 5.08932 5.08938C5.56609 4.61261 6.17353 4.28793 6.83483 4.15639C7.49613 4.02485 8.18158 4.09236 8.80451 4.35038C9.42744 4.60841 9.95987 5.04536 10.3345 5.60598C10.7091 6.16661 10.909 6.82572 10.909 7.49997C10.9079 8.40379 10.5484 9.27027 9.90931 9.90937C9.27021 10.5485 8.40373 10.908 7.49991 10.9091ZM7.49991 5.45452C7.09536 5.45452 6.69989 5.57448 6.36352 5.79924C6.02715 6.024 5.76497 6.34345 5.61016 6.71721C5.45534 7.09097 5.41484 7.50224 5.49376 7.89902C5.57268 8.2958 5.7675 8.66026 6.05356 8.94633C6.33962 9.23239 6.70408 9.4272 7.10086 9.50612C7.49764 9.58505 7.90891 9.54454 8.28267 9.38973C8.65643 9.23491 8.97589 8.97274 9.20064 8.63637C9.4254 8.29999 9.54536 7.90453 9.54536 7.49997C9.54482 6.95765 9.32915 6.4377 8.94567 6.05422C8.56219 5.67074 8.04223 5.45506 7.49991 5.45452Z" fill="white"/>
<path d="M7.5 19.0909L1.74819 12.3075C1.66826 12.2056 1.58917 12.1031 1.51091 12C0.528896 10.7055 -0.00182348 9.12483 4.70739e-06 7.5C4.70739e-06 5.51087 0.790181 3.60322 2.1967 2.1967C3.60322 0.790176 5.51088 0 7.5 0C9.48912 0 11.3968 0.790176 12.8033 2.1967C14.2098 3.60322 15 5.51087 15 7.5C15.0016 9.12405 14.4711 10.7039 13.4898 11.9979L13.4891 12C13.4891 12 13.2845 12.2686 13.2539 12.3048L7.5 19.0909ZM2.59978 11.1784C2.59978 11.1784 2.75864 11.3884 2.79478 11.4334L7.5 16.9827L12.2114 11.4259C12.2414 11.3884 12.4009 11.177 12.4016 11.1764C13.2042 10.119 13.638 8.82752 13.6364 7.5C13.6364 5.87253 12.9899 4.31172 11.8391 3.16093C10.6883 2.01014 9.12746 1.36364 7.5 1.36364C5.87254 1.36364 4.31173 2.01014 3.16094 3.16093C2.01015 4.31172 1.36364 5.87253 1.36364 7.5C1.36196 8.82838 1.79622 10.1206 2.59978 11.1784Z" fill="white"/>
</svg>
