<svg width="30" height="30" viewBox="0 0 30 30" fill="none" xmlns="http://www.w3.org/2000/svg">
<path d="M15.5 8C11.365 8 8 11.365 8 15.5C8 19.635 11.365 23 15.5 23C19.635 23 23 19.635 23 15.5C23 11.365 19.635 8 15.5 8ZM15.5 9.25C18.9594 9.25 21.75 12.0406 21.75 15.5C21.7515 16.9962 21.215 18.4431 20.2383 19.5766C19.2617 20.7101 17.91 21.4547 16.43 21.6744V17.3225H18.21L18.4894 15.5144H16.43V14.5269C16.43 13.7769 16.6769 13.11 17.3788 13.11H18.5069V11.5325C18.3088 11.5056 17.8894 11.4475 17.0969 11.4475C15.4419 11.4475 14.4719 12.3213 14.4719 14.3125V15.5144H12.7706V17.3225H14.4719V21.6587C13.0123 21.4185 11.6858 20.6672 10.7292 19.539C9.77259 18.4108 9.24831 16.9792 9.25 15.5C9.25 12.0406 12.0406 9.25 15.5 9.25Z" fill="white"/>
<rect x="3.5" y="3.5" width="24" height="24" rx="9.5" stroke="white"/>
</svg>
