<svg width="22" height="22" viewBox="0 0 22 22" fill="none" xmlns="http://www.w3.org/2000/svg">
<path d="M1 11C1 6.28632 1 3.92842 2.46421 2.46421C3.92842 1 6.28526 1 11 1C15.7137 1 18.0716 1 19.5358 2.46421C21 3.92842 21 6.28526 21 11C21 15.7137 21 18.0716 19.5358 19.5358C18.0716 21 15.7147 21 11 21C6.28632 21 3.92842 21 2.46421 19.5358C1 18.0716 1 15.7147 1 11Z" stroke="white" stroke-width="1.7" stroke-linecap="round" stroke-linejoin="round"/>
<path d="M16.7974 5.21045H16.7869M15.7364 10.9999C15.7364 12.2562 15.2373 13.461 14.349 14.3494C13.4607 15.2377 12.2558 15.7368 10.9995 15.7368C9.74325 15.7368 8.53841 15.2377 7.65008 14.3494C6.76175 13.461 6.2627 12.2562 6.2627 10.9999C6.2627 9.74364 6.76175 8.5388 7.65008 7.65047C8.53841 6.76214 9.74325 6.26308 10.9995 6.26308C12.2558 6.26308 13.4607 6.76214 14.349 7.65047C15.2373 8.5388 15.7364 9.74364 15.7364 10.9999Z" stroke="white" stroke-width="1.5" stroke-linecap="round" stroke-linejoin="round"/>
</svg>
