<svg width="30" height="30" viewBox="0 0 30 30" fill="none" xmlns="http://www.w3.org/2000/svg">
<path d="M8 15.5C8 11.9647 8 10.1963 9.09816 9.09816C10.1963 8 11.9639 8 15.5 8C19.0353 8 20.8037 8 21.9018 9.09816C23 10.1963 23 11.9639 23 15.5C23 19.0353 23 20.8037 21.9018 21.9018C20.8037 23 19.0361 23 15.5 23C11.9647 23 10.1963 23 9.09816 21.9018C8 20.8037 8 19.0361 8 15.5Z" stroke="white" stroke-linecap="round" stroke-linejoin="round"/>
<path d="M19.8483 11.1577H19.8404M19.0525 15.4998C19.0525 16.442 18.6782 17.3457 18.012 18.0119C17.3457 18.6782 16.4421 19.0525 15.4999 19.0525C14.5577 19.0525 13.6541 18.6782 12.9878 18.0119C12.3216 17.3457 11.9473 16.442 11.9473 15.4998C11.9473 14.5576 12.3216 13.654 12.9878 12.9877C13.6541 12.3215 14.5577 11.9472 15.4999 11.9472C16.4421 11.9472 17.3457 12.3215 18.012 12.9877C18.6782 13.654 19.0525 14.5576 19.0525 15.4998Z" stroke="white" stroke-linecap="round" stroke-linejoin="round"/>
<rect x="3.5" y="3.5" width="24" height="24" rx="9.5" stroke="white"/>
</svg>
