<svg width="275" height="39" viewBox="0 0 275 39" fill="none" xmlns="http://www.w3.org/2000/svg">
<path d="M39.9148 6.96215C39.8268 6.59646 39.667 6.25189 39.4448 5.94843C39.2225 5.64497 38.9422 5.38866 38.6202 5.19438C33.0029 1.79632 26.5629 0 19.9978 0C13.4327 0 6.99275 1.79632 1.37547 5.19438C1.05433 5.38914 0.774747 5.64531 0.552712 5.94823C0.330677 6.25115 0.170548 6.59488 0.0814871 6.95975C-0.00757406 7.32462 -0.0238196 7.70347 0.0336796 8.07462C0.0911787 8.44577 0.221294 8.80195 0.416582 9.12277L17.5587 37.2054C17.8133 37.6252 18.1719 37.9723 18.5998 38.2132C19.0276 38.4541 19.5104 38.5807 20.0014 38.5807C20.4924 38.5807 20.9752 38.4541 21.403 38.2132C21.8309 37.9723 22.1895 37.6252 22.4441 37.2054L39.5862 9.12277C39.7817 8.8025 39.9115 8.44649 39.9679 8.07552C40.0243 7.70455 40.0062 7.32606 39.9148 6.96215ZM8.49657 16.8724C8.96072 16.435 9.51666 16.1067 10.1238 15.9114C10.731 15.7162 11.3741 15.6589 12.0062 15.7438C12.6383 15.8287 13.2435 16.0536 13.7777 16.4022C14.3118 16.7507 14.7614 17.2141 15.0937 17.7585C15.426 18.3029 15.6326 18.9146 15.6984 19.549C15.7642 20.1833 15.6876 20.8244 15.4741 21.4254C15.2607 22.0265 14.9158 22.5722 14.4646 23.023C14.0134 23.4738 13.4672 23.8181 12.866 24.031L8.49657 16.8724ZM24.1958 28.8272C23.4805 28.1527 23.0188 27.2527 22.8883 26.2781C22.7578 25.3036 22.9664 24.3138 23.479 23.4748C23.9917 22.6358 24.7773 21.9986 25.704 21.67C26.6307 21.3415 27.6422 21.3416 28.5689 21.6704L24.1958 28.8272ZM30.0759 19.1973C28.4882 18.4766 26.6916 18.3617 25.0249 18.8741C23.3582 19.3865 21.9366 20.4909 21.0279 21.979C20.1192 23.4672 19.7863 25.2364 20.0919 26.9531C20.3975 28.6698 21.3205 30.2154 22.687 31.2985L19.9978 35.7108L14.3731 26.5023C15.2965 26.0862 16.1209 25.4784 16.7915 24.7193C17.4621 23.9602 17.9636 23.0672 18.2627 22.0995C18.5618 21.1318 18.6516 20.1115 18.5263 19.1064C18.4009 18.1013 18.0632 17.1344 17.5356 16.2698C17.008 15.4052 16.3025 14.6627 15.466 14.0916C14.6295 13.5205 13.6811 13.1338 12.6837 12.9572C11.6863 12.7807 10.6628 12.8183 9.68109 13.0675C8.69936 13.3168 7.78186 13.7719 6.98949 14.4029L5.85562 12.544C10.1144 9.94439 15.0074 8.569 19.9969 8.569C24.9865 8.569 29.8795 9.94439 34.1382 12.544L30.0759 19.1973ZM35.6292 10.1031C30.921 7.23149 25.5127 5.71235 19.9978 5.71235C14.483 5.71235 9.07466 7.23149 4.3664 10.1031L2.85576 7.63533C8.02736 4.50978 13.9551 2.85767 19.9978 2.85767C26.0406 2.85767 31.9683 4.50978 37.1399 7.63533L35.6292 10.1031Z" fill="#F2A007"/>
<path d="M55.325 18.8403H64.05V21.5903H55.325V18.8403ZM55.6 28.2903H52.35V10.7903H65.125V13.5153H55.6V28.2903ZM75.7535 28.2903V25.5903L75.5785 25.0153V20.2903C75.5785 19.3737 75.3035 18.6653 74.7535 18.1653C74.2035 17.6487 73.3702 17.3903 72.2535 17.3903C71.5035 17.3903 70.7618 17.507 70.0285 17.7403C69.3118 17.9737 68.7035 18.2987 68.2035 18.7153L66.9785 16.4403C67.6952 15.8903 68.5452 15.482 69.5285 15.2153C70.5285 14.932 71.5618 14.7903 72.6285 14.7903C74.5618 14.7903 76.0535 15.257 77.1035 16.1903C78.1702 17.107 78.7035 18.532 78.7035 20.4653V28.2903H75.7535ZM71.5535 28.4653C70.5535 28.4653 69.6785 28.2987 68.9285 27.9653C68.1785 27.6153 67.5952 27.1403 67.1785 26.5403C66.7785 25.9237 66.5785 25.232 66.5785 24.4653C66.5785 23.7153 66.7535 23.0403 67.1035 22.4403C67.4702 21.8403 68.0618 21.3653 68.8785 21.0153C69.6952 20.6653 70.7785 20.4903 72.1285 20.4903H76.0035V22.5653H72.3535C71.2868 22.5653 70.5702 22.7403 70.2035 23.0903C69.8368 23.4237 69.6535 23.8403 69.6535 24.3403C69.6535 24.907 69.8785 25.357 70.3285 25.6903C70.7785 26.0237 71.4035 26.1903 72.2035 26.1903C72.9702 26.1903 73.6535 26.0153 74.2535 25.6653C74.8702 25.3153 75.3118 24.7987 75.5785 24.1153L76.1035 25.9903C75.8035 26.7737 75.2618 27.382 74.4785 27.8153C73.7118 28.2487 72.7368 28.4653 71.5535 28.4653ZM90.1141 28.4653C88.9807 28.4653 87.9724 28.2153 87.0891 27.7153C86.2057 27.2153 85.5057 26.4653 84.9891 25.4653C84.4891 24.4487 84.2391 23.1653 84.2391 21.6153C84.2391 20.0487 84.4974 18.7653 85.0141 17.7653C85.5474 16.7653 86.2557 16.0237 87.1391 15.5403C88.0391 15.0403 89.0307 14.7903 90.1141 14.7903C91.4307 14.7903 92.5891 15.0737 93.5891 15.6403C94.6057 16.207 95.4057 16.9987 95.9891 18.0153C96.5891 19.032 96.8891 20.232 96.8891 21.6153C96.8891 22.9987 96.5891 24.1987 95.9891 25.2153C95.4057 26.232 94.6057 27.032 93.5891 27.6153C92.5891 28.182 91.4307 28.4653 90.1141 28.4653ZM82.7141 28.2903V9.74034H85.8391V18.0403L85.5891 21.5903L85.6891 25.1403V28.2903H82.7141ZM89.7641 25.7903C90.5141 25.7903 91.1807 25.6237 91.7641 25.2903C92.3641 24.957 92.8391 24.4737 93.1891 23.8403C93.5391 23.207 93.7141 22.4653 93.7141 21.6153C93.7141 20.7487 93.5391 20.007 93.1891 19.3903C92.8391 18.757 92.3641 18.2737 91.7641 17.9403C91.1807 17.607 90.5141 17.4403 89.7641 17.4403C89.0141 17.4403 88.3391 17.607 87.7391 17.9403C87.1391 18.2737 86.6641 18.757 86.3141 19.3903C85.9641 20.007 85.7891 20.7487 85.7891 21.6153C85.7891 22.4653 85.9641 23.207 86.3141 23.8403C86.6641 24.4737 87.1391 24.957 87.7391 25.2903C88.3391 25.6237 89.0141 25.7903 89.7641 25.7903ZM105.503 28.4653C104.369 28.4653 103.369 28.257 102.503 27.8403C101.636 27.407 100.961 26.757 100.478 25.8903C99.9944 25.007 99.7527 23.8987 99.7527 22.5653V14.9403H102.878V22.1403C102.878 23.3403 103.144 24.2403 103.678 24.8403C104.228 25.4237 105.003 25.7153 106.003 25.7153C106.736 25.7153 107.369 25.5653 107.903 25.2653C108.453 24.9653 108.878 24.5153 109.178 23.9153C109.494 23.3153 109.653 22.5737 109.653 21.6903V14.9403H112.778V28.2903H109.803V24.6903L110.328 25.7903C109.878 26.657 109.219 27.3237 108.353 27.7903C107.486 28.2403 106.536 28.4653 105.503 28.4653ZM116.869 28.2903V9.74034H119.994V28.2903H116.869ZM130.096 28.4653C128.729 28.4653 127.513 28.1737 126.446 27.5903C125.379 26.9903 124.538 26.1737 123.921 25.1403C123.304 24.107 122.996 22.932 122.996 21.6153C122.996 20.282 123.304 19.107 123.921 18.0903C124.538 17.057 125.379 16.2487 126.446 15.6653C127.513 15.082 128.729 14.7903 130.096 14.7903C131.479 14.7903 132.704 15.082 133.771 15.6653C134.854 16.2487 135.696 17.0487 136.296 18.0653C136.913 19.082 137.221 20.2653 137.221 21.6153C137.221 22.932 136.913 24.107 136.296 25.1403C135.696 26.1737 134.854 26.9903 133.771 27.5903C132.704 28.1737 131.479 28.4653 130.096 28.4653ZM130.096 25.7903C130.863 25.7903 131.546 25.6237 132.146 25.2903C132.746 24.957 133.213 24.4737 133.546 23.8403C133.896 23.207 134.071 22.4653 134.071 21.6153C134.071 20.7487 133.896 20.007 133.546 19.3903C133.213 18.757 132.746 18.2737 132.146 17.9403C131.546 17.607 130.871 17.4403 130.121 17.4403C129.354 17.4403 128.671 17.607 128.071 17.9403C127.488 18.2737 127.021 18.757 126.671 19.3903C126.321 20.007 126.146 20.7487 126.146 21.6153C126.146 22.4653 126.321 23.207 126.671 23.8403C127.021 24.4737 127.488 24.957 128.071 25.2903C128.671 25.6237 129.346 25.7903 130.096 25.7903ZM145.859 28.4653C144.726 28.4653 143.726 28.257 142.859 27.8403C141.993 27.407 141.318 26.757 140.834 25.8903C140.351 25.007 140.109 23.8987 140.109 22.5653V14.9403H143.234V22.1403C143.234 23.3403 143.501 24.2403 144.034 24.8403C144.584 25.4237 145.359 25.7153 146.359 25.7153C147.093 25.7153 147.726 25.5653 148.259 25.2653C148.809 24.9653 149.234 24.5153 149.534 23.9153C149.851 23.3153 150.009 22.5737 150.009 21.6903V14.9403H153.134V28.2903H150.159V24.6903L150.684 25.7903C150.234 26.657 149.576 27.3237 148.709 27.7903C147.843 28.2403 146.893 28.4653 145.859 28.4653ZM161.351 28.4653C160.234 28.4653 159.159 28.3237 158.126 28.0403C157.109 27.7403 156.301 27.382 155.701 26.9653L156.901 24.5903C157.501 24.9737 158.217 25.2903 159.051 25.5403C159.884 25.7903 160.717 25.9153 161.551 25.9153C162.534 25.9153 163.242 25.782 163.676 25.5153C164.126 25.2487 164.351 24.8903 164.351 24.4403C164.351 24.0737 164.201 23.7987 163.901 23.6153C163.601 23.4153 163.209 23.2653 162.726 23.1653C162.242 23.0653 161.701 22.9737 161.101 22.8903C160.517 22.807 159.926 22.6987 159.326 22.5653C158.742 22.4153 158.209 22.207 157.726 21.9403C157.242 21.657 156.851 21.282 156.551 20.8153C156.251 20.3487 156.101 19.732 156.101 18.9653C156.101 18.1153 156.342 17.382 156.826 16.7653C157.309 16.132 157.984 15.6487 158.851 15.3153C159.734 14.9653 160.776 14.7903 161.976 14.7903C162.876 14.7903 163.784 14.8903 164.701 15.0903C165.617 15.2903 166.376 15.5737 166.976 15.9403L165.776 18.3153C165.142 17.932 164.501 17.6737 163.851 17.5403C163.217 17.3903 162.584 17.3153 161.951 17.3153C161.001 17.3153 160.292 17.457 159.826 17.7403C159.376 18.0237 159.151 18.382 159.151 18.8153C159.151 19.2153 159.301 19.5153 159.601 19.7153C159.901 19.9153 160.292 20.0737 160.776 20.1903C161.259 20.307 161.792 20.407 162.376 20.4903C162.976 20.557 163.567 20.6653 164.151 20.8153C164.734 20.9653 165.267 21.1737 165.751 21.4403C166.251 21.6903 166.651 22.0487 166.951 22.5153C167.251 22.982 167.401 23.5903 167.401 24.3403C167.401 25.1737 167.151 25.8987 166.651 26.5153C166.167 27.132 165.476 27.6153 164.576 27.9653C163.676 28.2987 162.601 28.4653 161.351 28.4653Z" fill="white"/>
<path d="M177.301 28.2903V10.7903H184.501C186.051 10.7903 187.376 11.0403 188.476 11.5403C189.593 12.0403 190.451 12.757 191.051 13.6903C191.651 14.6237 191.951 15.732 191.951 17.0153C191.951 18.2987 191.651 19.407 191.051 20.3403C190.451 21.2737 189.593 21.9903 188.476 22.4903C187.376 22.9903 186.051 23.2403 184.501 23.2403H179.101L180.551 21.7153V28.2903H177.301ZM180.551 22.0653L179.101 20.4903H184.351C185.785 20.4903 186.86 20.1903 187.576 19.5903C188.31 18.9737 188.676 18.1153 188.676 17.0153C188.676 15.8987 188.31 15.0403 187.576 14.4403C186.86 13.8403 185.785 13.5403 184.351 13.5403H179.101L180.551 11.9403V22.0653ZM195.141 28.2903V14.9403H198.266V28.2903H195.141ZM196.716 12.7403C196.132 12.7403 195.649 12.557 195.266 12.1903C194.899 11.8237 194.716 11.382 194.716 10.8653C194.716 10.332 194.899 9.89034 195.266 9.54034C195.649 9.17368 196.132 8.99034 196.716 8.99034C197.299 8.99034 197.774 9.16534 198.141 9.51534C198.524 9.84868 198.716 10.2737 198.716 10.7903C198.716 11.3403 198.532 11.807 198.166 12.1903C197.799 12.557 197.316 12.7403 196.716 12.7403ZM201.267 28.2903V26.3153L209.492 16.3653L210.067 17.4403H201.417V14.9403H212.567V16.9153L204.342 26.8653L203.717 25.7903H212.792V28.2903H201.267ZM214.573 28.2903V26.3153L222.798 16.3653L223.373 17.4403H214.723V14.9403H225.873V16.9153L217.648 26.8653L217.023 25.7903H226.098V28.2903H214.573ZM237.204 28.2903V25.5903L237.029 25.0153V20.2903C237.029 19.3737 236.754 18.6653 236.204 18.1653C235.654 17.6487 234.82 17.3903 233.704 17.3903C232.954 17.3903 232.212 17.507 231.479 17.7403C230.762 17.9737 230.154 18.2987 229.654 18.7153L228.429 16.4403C229.145 15.8903 229.995 15.482 230.979 15.2153C231.979 14.932 233.012 14.7903 234.079 14.7903C236.012 14.7903 237.504 15.257 238.554 16.1903C239.62 17.107 240.154 18.532 240.154 20.4653V28.2903H237.204ZM233.004 28.4653C232.004 28.4653 231.129 28.2987 230.379 27.9653C229.629 27.6153 229.045 27.1403 228.629 26.5403C228.229 25.9237 228.029 25.232 228.029 24.4653C228.029 23.7153 228.204 23.0403 228.554 22.4403C228.92 21.8403 229.512 21.3653 230.329 21.0153C231.145 20.6653 232.229 20.4903 233.579 20.4903H237.454V22.5653H233.804C232.737 22.5653 232.02 22.7403 231.654 23.0903C231.287 23.4237 231.104 23.8403 231.104 24.3403C231.104 24.907 231.329 25.357 231.779 25.6903C232.229 26.0237 232.854 26.1903 233.654 26.1903C234.42 26.1903 235.104 26.0153 235.704 25.6653C236.32 25.3153 236.762 24.7987 237.029 24.1153L237.554 25.9903C237.254 26.7737 236.712 27.382 235.929 27.8153C235.162 28.2487 234.187 28.4653 233.004 28.4653ZM244.164 28.2903V14.9403H247.139V18.6153L246.789 17.5403C247.189 16.6403 247.814 15.957 248.664 15.4903C249.531 15.0237 250.606 14.7903 251.889 14.7903V17.7653C251.756 17.732 251.631 17.7153 251.514 17.7153C251.398 17.6987 251.281 17.6903 251.164 17.6903C249.981 17.6903 249.039 18.0403 248.339 18.7403C247.639 19.4237 247.289 20.4487 247.289 21.8153V28.2903H244.164ZM254.54 28.2903V14.9403H257.665V28.2903H254.54ZM256.115 12.7403C255.532 12.7403 255.049 12.557 254.665 12.1903C254.299 11.8237 254.115 11.382 254.115 10.8653C254.115 10.332 254.299 9.89034 254.665 9.54034C255.049 9.17368 255.532 8.99034 256.115 8.99034C256.699 8.99034 257.174 9.16534 257.54 9.51534C257.924 9.84868 258.115 10.2737 258.115 10.7903C258.115 11.3403 257.932 11.807 257.565 12.1903C257.199 12.557 256.715 12.7403 256.115 12.7403ZM269.992 28.2903V25.5903L269.817 25.0153V20.2903C269.817 19.3737 269.542 18.6653 268.992 18.1653C268.442 17.6487 267.608 17.3903 266.492 17.3903C265.742 17.3903 265 17.507 264.267 17.7403C263.55 17.9737 262.942 18.2987 262.442 18.7153L261.217 16.4403C261.933 15.8903 262.783 15.482 263.767 15.2153C264.767 14.932 265.8 14.7903 266.867 14.7903C268.8 14.7903 270.292 15.257 271.342 16.1903C272.408 17.107 272.942 18.532 272.942 20.4653V28.2903H269.992ZM265.792 28.4653C264.792 28.4653 263.917 28.2987 263.167 27.9653C262.417 27.6153 261.833 27.1403 261.417 26.5403C261.017 25.9237 260.817 25.232 260.817 24.4653C260.817 23.7153 260.992 23.0403 261.342 22.4403C261.708 21.8403 262.3 21.3653 263.117 21.0153C263.933 20.6653 265.017 20.4903 266.367 20.4903H270.242V22.5653H266.592C265.525 22.5653 264.808 22.7403 264.442 23.0903C264.075 23.4237 263.892 23.8403 263.892 24.3403C263.892 24.907 264.117 25.357 264.567 25.6903C265.017 26.0237 265.642 26.1903 266.442 26.1903C267.208 26.1903 267.892 26.0153 268.492 25.6653C269.108 25.3153 269.55 24.7987 269.817 24.1153L270.342 25.9903C270.042 26.7737 269.5 27.382 268.717 27.8153C267.95 28.2487 266.975 28.4653 265.792 28.4653Z" fill="#F2A007"/>
</svg>
