<svg width="24" height="23" viewBox="0 0 24 23" fill="none" xmlns="http://www.w3.org/2000/svg">
<path d="M15 14.4157H19L22 21.4357H2L5 14.4157H9M13 7.39561C13 7.66159 12.8946 7.91667 12.7071 8.10474C12.5196 8.29282 12.2652 8.39848 12 8.39848C11.7348 8.39848 11.4804 8.29282 11.2929 8.10474C11.1054 7.91667 11 7.66159 11 7.39561C11 7.12963 11.1054 6.87455 11.2929 6.68648C11.4804 6.4984 11.7348 6.39274 12 6.39274C12.2652 6.39274 12.5196 6.4984 12.7071 6.68648C12.8946 6.87455 13 7.12963 13 7.39561ZM6 7.39561C6 12.4099 12 17.4243 12 17.4243C12 17.4243 18 12.4099 18 7.39561C18 3.96882 15.314 1.37842 12 1.37842C8.686 1.37842 6 3.96882 6 7.39561Z" stroke="white" stroke-width="2"/>
</svg>
