<svg width="20" height="21" viewBox="0 0 20 21" fill="none" xmlns="http://www.w3.org/2000/svg">
<path d="M10 18.3326C8.14348 18.3326 6.36301 17.593 5.05025 16.2765C3.7375 14.96 3 13.1744 3 11.3125C3 9.45071 3.7375 7.66513 5.05025 6.34861C6.36301 5.0321 8.14348 4.29249 10 4.29249C11.8565 4.29249 13.637 5.0321 14.9497 6.34861C16.2625 7.66513 17 9.45071 17 11.3125C17 13.1744 16.2625 14.96 14.9497 16.2765C13.637 17.593 11.8565 18.3326 10 18.3326ZM10 2.28676C7.61305 2.28676 5.32387 3.23768 3.63604 4.93035C1.94821 6.62301 1 8.91876 1 11.3125C1 13.7063 1.94821 16.0021 3.63604 17.6947C5.32387 19.3874 7.61305 20.3383 10 20.3383C12.3869 20.3383 14.6761 19.3874 16.364 17.6947C18.0518 16.0021 19 13.7063 19 11.3125C19 8.91876 18.0518 6.62301 16.364 4.93035C14.6761 3.23768 12.3869 2.28676 10 2.28676ZM10.5 6.29822H9V12.3154L13.75 15.1736L14.5 13.9401L10.5 11.5633V6.29822ZM5.88 1.67501L4.6 0.140625L0 4.00166L1.29 5.53604L5.88 1.67501ZM20 4.01168L15.4 0.140625L14.11 1.67501L18.71 5.54607L20 4.01168Z" fill="white"/>
</svg>
