<svg width="168" height="80" viewBox="0 0 168 80" fill="none" xmlns="http://www.w3.org/2000/svg">
<path d="M0.9 0.299998V0H22.35V4.05H22.05V3.93C22.05 2.91 21.11 2.05 19.23 1.35C17.35 0.649998 14.67 0.299998 11.19 0.299998H6.24V13.59C6.42 13.19 6.82 12.8 7.44 12.42C8.06 12.02 8.82 11.82 9.72 11.82C10.46 11.82 11.13 11.92 11.73 12.12C12.33 12.3 12.91 12.51 13.47 12.75C14.03 12.99 14.59 13.21 15.15 13.41C15.71 13.59 16.32 13.68 16.98 13.68C17.56 13.68 18.07 13.53 18.51 13.23C18.97 12.91 19.2 12.49 19.2 11.97H19.5C19.5 12.87 19.16 13.65 18.48 14.31C17.8 14.95 16.86 15.27 15.66 15.27C14.74 15.27 13.94 15.13 13.26 14.85C12.6 14.57 11.99 14.27 11.43 13.95C10.87 13.61 10.35 13.31 9.87 13.05C9.39 12.77 8.88 12.63 8.34 12.63C7.56 12.63 7.01 12.9 6.69 13.44C6.39 13.96 6.24 14.57 6.24 15.27V21.66C6.24 23.14 6.26 24.39 6.3 25.41C6.36 26.43 6.48 27.26 6.66 27.9C6.84 28.54 7.11 29 7.47 29.28C7.85 29.56 8.36 29.7 9 29.7V30H0.9V29.7C1.54 29.7 2.04 29.56 2.4 29.28C2.78 29 3.06 28.54 3.24 27.9C3.42 27.26 3.53 26.43 3.57 25.41C3.63 24.39 3.66 23.14 3.66 21.66V8.34C3.66 6.86 3.63 5.61 3.57 4.59C3.53 3.57 3.42 2.74 3.24 2.1C3.06 1.46 2.78 0.999998 2.4 0.719998C2.04 0.439998 1.54 0.299998 0.9 0.299998ZM21.7512 23.94C21.7512 22.62 21.9612 21.51 22.3812 20.61C22.8212 19.69 23.4012 18.92 24.1212 18.3C24.8412 17.68 25.6512 17.18 26.5512 16.8C27.4712 16.4 28.4012 16.07 29.3412 15.81C30.2812 15.53 31.2012 15.29 32.1012 15.09C33.0212 14.87 33.8412 14.63 34.5612 14.37C35.2812 14.09 35.8512 13.76 36.2712 13.38C36.7112 13 36.9312 12.5 36.9312 11.88C36.9312 11.28 36.7712 10.76 36.4512 10.32C36.1312 9.88 35.7212 9.53 35.2212 9.27C34.7212 8.99 34.1512 8.79 33.5112 8.67C32.8912 8.53 32.2812 8.46 31.6812 8.46C30.9612 8.46 30.2612 8.53 29.5812 8.67C28.9212 8.79 28.3312 8.99 27.8112 9.27C27.2912 9.55 26.8712 9.91 26.5512 10.35C26.2312 10.79 26.0712 11.32 26.0712 11.94C26.0712 12.22 26.1212 12.47 26.2212 12.69C26.3212 12.89 26.4312 13.05 26.5512 13.17C26.6912 13.29 26.8312 13.36 26.9712 13.38C27.1112 13.4 27.2112 13.38 27.2712 13.32C27.3512 13.54 27.3512 13.76 27.2712 13.98C27.1912 14.18 27.0712 14.36 26.9112 14.52C26.7512 14.68 26.5512 14.81 26.3112 14.91C26.0712 15.01 25.8312 15.06 25.5912 15.06C24.9512 15.06 24.4312 14.82 24.0312 14.34C23.6312 13.86 23.4312 13.3 23.4312 12.66C23.4312 11.92 23.6412 11.27 24.0612 10.71C24.4812 10.15 25.0512 9.68 25.7712 9.3C26.5112 8.92 27.3812 8.64 28.3812 8.46C29.4012 8.26 30.5012 8.16 31.6812 8.16C32.5212 8.16 33.4012 8.25 34.3212 8.43C35.2412 8.59 36.0812 8.84 36.8412 9.18C37.6212 9.5 38.2512 9.89 38.7312 10.35C39.2312 10.81 39.4812 11.34 39.4812 11.94C39.4812 12.54 39.2612 13.02 38.8212 13.38C38.4012 13.72 37.8312 14.01 37.1112 14.25C36.4112 14.47 35.6112 14.67 34.7112 14.85C33.8112 15.01 32.8812 15.21 31.9212 15.45C30.9812 15.69 30.0612 16 29.1612 16.38C28.2612 16.76 27.4512 17.28 26.7312 17.94C26.0312 18.6 25.4612 19.43 25.0212 20.43C24.6012 21.43 24.3912 22.66 24.3912 24.12C24.3912 24.9 24.5112 25.63 24.7512 26.31C24.9912 26.97 25.3212 27.55 25.7412 28.05C26.1812 28.53 26.7012 28.91 27.3012 29.19C27.9012 29.47 28.5712 29.61 29.3112 29.61C30.1312 29.61 30.9712 29.39 31.8312 28.95C32.6912 28.51 33.4812 27.81 34.2012 26.85C34.9212 25.89 35.5112 24.65 35.9712 23.13C36.4312 21.59 36.6612 19.73 36.6612 17.55C36.6612 17.21 36.6312 16.9 36.5712 16.62C36.5112 16.32 36.3712 16.14 36.1512 16.08C36.1512 15.98 36.2212 15.89 36.3612 15.81C36.5212 15.71 36.7212 15.66 36.9612 15.66C37.5012 15.66 37.9312 15.79 38.2512 16.05C38.5912 16.31 38.8412 16.66 39.0012 17.1C39.1812 17.54 39.2912 18.04 39.3312 18.6C39.3912 19.16 39.4212 19.74 39.4212 20.34C39.4212 21 39.4212 21.56 39.4212 22.02C39.4212 22.46 39.4212 22.89 39.4212 23.31C39.4412 23.73 39.4512 24.19 39.4512 24.69C39.4512 25.19 39.4512 25.84 39.4512 26.64C39.4512 27.26 39.5312 27.77 39.6912 28.17C39.8512 28.57 40.0512 28.89 40.2912 29.13C40.5312 29.35 40.7812 29.5 41.0412 29.58C41.3012 29.66 41.5312 29.7 41.7312 29.7V30H39.6012C38.8012 30 38.1212 29.67 37.5612 29.01C37.0212 28.33 36.7512 27.42 36.7512 26.28V21.15C36.4912 22.43 36.1512 23.65 35.7312 24.81C35.3312 25.95 34.8012 26.95 34.1412 27.81C33.5012 28.67 32.7212 29.35 31.8012 29.85C30.8812 30.35 29.7612 30.6 28.4412 30.6C27.4812 30.6 26.5912 30.43 25.7712 30.09C24.9512 29.77 24.2412 29.32 23.6412 28.74C23.0412 28.14 22.5712 27.43 22.2312 26.61C21.9112 25.79 21.7512 24.9 21.7512 23.94ZM43.234 30V29.7C43.874 29.7 44.374 29.56 44.734 29.28C45.114 29 45.394 28.54 45.574 27.9C45.754 27.26 45.864 26.43 45.904 25.41C45.964 24.39 45.994 23.14 45.994 21.66V8.34C45.994 6.86 45.964 5.61 45.904 4.59C45.864 3.57 45.754 2.74 45.574 2.1C45.394 1.46 45.114 0.999998 44.734 0.719998C44.374 0.439998 43.874 0.299998 43.234 0.299998V0H48.574V12.27C49.474 10.91 50.534 9.89 51.754 9.21C52.994 8.51 54.364 8.16 55.864 8.16C57.124 8.16 58.284 8.38 59.344 8.82C60.424 9.24 61.354 9.85 62.134 10.65C62.914 11.45 63.524 12.43 63.964 13.59C64.424 14.73 64.654 16.02 64.654 17.46C64.654 19.46 64.354 21.24 63.754 22.8C63.154 24.34 62.314 25.65 61.234 26.73C60.174 27.79 58.904 28.6 57.424 29.16C55.964 29.72 54.364 30 52.624 30H43.234ZM48.574 28.89C49.094 29.13 49.644 29.33 50.224 29.49C50.824 29.63 51.504 29.7 52.264 29.7C53.544 29.7 54.774 29.4 55.954 28.8C57.134 28.2 58.174 27.38 59.074 26.34C59.994 25.3 60.724 24.08 61.264 22.68C61.804 21.26 62.074 19.73 62.074 18.09C62.074 16.41 61.844 14.99 61.384 13.83C60.944 12.65 60.364 11.7 59.644 10.98C58.924 10.24 58.114 9.71 57.214 9.39C56.334 9.05 55.454 8.88 54.574 8.88C53.794 8.88 53.044 9.02 52.324 9.3C51.604 9.58 50.964 10.04 50.404 10.68C49.864 11.3 49.424 12.12 49.084 13.14C48.744 14.16 48.574 15.41 48.574 16.89V28.89ZM72.3853 8.76C72.3853 8.88 72.3853 9.18 72.3853 9.66C72.3853 10.12 72.3853 10.7 72.3853 11.4C72.3853 12.1 72.3853 12.88 72.3853 13.74C72.4053 14.6 72.4153 15.47 72.4153 16.35C72.4153 18.41 72.4153 20.72 72.4153 23.28C72.4153 24.96 72.6653 26.27 73.1653 27.21C73.6853 28.13 74.3053 28.81 75.0253 29.25C75.7453 29.69 76.4853 29.95 77.2453 30.03C78.0253 30.13 78.6653 30.18 79.1653 30.18C79.9253 30.18 80.7053 30.1 81.5053 29.94C82.3253 29.78 83.0953 29.57 83.8153 29.31V17.1C83.8153 15.62 83.7853 14.37 83.7253 13.35C83.6853 12.33 83.5753 11.5 83.3953 10.86C83.2153 10.22 82.9353 9.76 82.5553 9.48C82.1953 9.2 81.6953 9.06 81.0553 9.06V8.76H86.3953V21.66C86.3953 23.14 86.4153 24.39 86.4553 25.41C86.5153 26.43 86.6353 27.26 86.8153 27.9C86.9953 28.54 87.2653 29 87.6253 29.28C88.0053 29.56 88.5153 29.7 89.1553 29.7V30H85.7353C85.1153 30 84.4353 30.03 83.6953 30.09C82.9553 30.15 82.2153 30.22 81.4753 30.3C80.7553 30.38 80.0653 30.45 79.4053 30.51C78.7653 30.57 78.2353 30.6 77.8153 30.6C77.1553 30.6 76.3653 30.54 75.4453 30.42C74.5253 30.32 73.6453 30.05 72.8053 29.61C71.9653 29.17 71.2553 28.51 70.6753 27.63C70.0953 26.73 69.8053 25.49 69.8053 23.91V17.1C69.8053 15.62 69.7753 14.37 69.7153 13.35C69.6753 12.33 69.5653 11.5 69.3853 10.86C69.2053 10.22 68.9253 9.76 68.5453 9.48C68.1853 9.2 67.6853 9.06 67.0453 9.06V8.76H72.3853ZM90.6656 0H96.0056V21.66C96.0056 23.14 96.0256 24.39 96.0656 25.41C96.1256 26.43 96.2456 27.26 96.4256 27.9C96.6056 28.54 96.8756 29 97.2356 29.28C97.6156 29.56 98.1256 29.7 98.7656 29.7V30H90.6656V29.7C91.3056 29.7 91.8056 29.56 92.1656 29.28C92.5456 29 92.8256 28.54 93.0056 27.9C93.1856 27.26 93.2956 26.43 93.3356 25.41C93.3956 24.39 93.4256 23.14 93.4256 21.66V8.34C93.4256 6.86 93.3956 5.61 93.3356 4.59C93.2956 3.57 93.1856 2.74 93.0056 2.1C92.8256 1.46 92.5456 0.999998 92.1656 0.719998C91.8056 0.439998 91.3056 0.299998 90.6656 0.299998V0ZM111.758 8.16C113.378 8.16 114.828 8.46 116.108 9.06C117.388 9.64 118.468 10.44 119.348 11.46C120.248 12.48 120.928 13.67 121.388 15.03C121.868 16.39 122.108 17.84 122.108 19.38C122.108 20.92 121.868 22.37 121.388 23.73C120.928 25.09 120.248 26.28 119.348 27.3C118.468 28.32 117.388 29.13 116.108 29.73C114.828 30.31 113.378 30.6 111.758 30.6C110.138 30.6 108.688 30.31 107.408 29.73C106.148 29.13 105.078 28.32 104.198 27.3C103.318 26.28 102.638 25.09 102.158 23.73C101.698 22.37 101.468 20.92 101.468 19.38C101.468 17.84 101.698 16.39 102.158 15.03C102.638 13.67 103.318 12.48 104.198 11.46C105.078 10.44 106.148 9.64 107.408 9.06C108.688 8.46 110.138 8.16 111.758 8.16ZM104.018 19.38C104.018 21.02 104.198 22.51 104.558 23.85C104.938 25.19 105.468 26.34 106.148 27.3C106.828 28.24 107.638 28.97 108.578 29.49C109.538 29.99 110.598 30.24 111.758 30.24C112.918 30.24 113.978 29.99 114.938 29.49C115.898 28.97 116.718 28.24 117.398 27.3C118.078 26.34 118.608 25.19 118.988 23.85C119.368 22.51 119.558 21.02 119.558 19.38C119.558 17.72 119.368 16.23 118.988 14.91C118.608 13.57 118.078 12.43 117.398 11.49C116.718 10.53 115.898 9.8 114.938 9.3C113.978 8.78 112.918 8.52 111.758 8.52C110.598 8.52 109.538 8.78 108.578 9.3C107.638 9.8 106.828 10.53 106.148 11.49C105.468 12.43 104.938 13.57 104.558 14.91C104.198 16.23 104.018 17.72 104.018 19.38ZM129.836 8.76C129.836 8.88 129.836 9.18 129.836 9.66C129.836 10.12 129.836 10.7 129.836 11.4C129.836 12.1 129.836 12.88 129.836 13.74C129.856 14.6 129.866 15.47 129.866 16.35C129.866 18.41 129.866 20.72 129.866 23.28C129.866 24.96 130.116 26.27 130.616 27.21C131.136 28.13 131.756 28.81 132.476 29.25C133.196 29.69 133.936 29.95 134.696 30.03C135.476 30.13 136.116 30.18 136.616 30.18C137.376 30.18 138.156 30.1 138.956 29.94C139.776 29.78 140.546 29.57 141.266 29.31V17.1C141.266 15.62 141.236 14.37 141.176 13.35C141.136 12.33 141.026 11.5 140.846 10.86C140.666 10.22 140.386 9.76 140.006 9.48C139.646 9.2 139.146 9.06 138.506 9.06V8.76H143.846V21.66C143.846 23.14 143.866 24.39 143.906 25.41C143.966 26.43 144.086 27.26 144.266 27.9C144.446 28.54 144.716 29 145.076 29.28C145.456 29.56 145.966 29.7 146.606 29.7V30H143.186C142.566 30 141.886 30.03 141.146 30.09C140.406 30.15 139.666 30.22 138.926 30.3C138.206 30.38 137.516 30.45 136.856 30.51C136.216 30.57 135.686 30.6 135.266 30.6C134.606 30.6 133.816 30.54 132.896 30.42C131.976 30.32 131.096 30.05 130.256 29.61C129.416 29.17 128.706 28.51 128.126 27.63C127.546 26.73 127.256 25.49 127.256 23.91V17.1C127.256 15.62 127.226 14.37 127.166 13.35C127.126 12.33 127.016 11.5 126.836 10.86C126.656 10.22 126.376 9.76 125.996 9.48C125.636 9.2 125.136 9.06 124.496 9.06V8.76H129.836ZM149.317 25.11C149.317 25.47 149.467 25.95 149.767 26.55C150.087 27.13 150.557 27.71 151.177 28.29C151.797 28.85 152.557 29.33 153.457 29.73C154.357 30.13 155.397 30.32 156.577 30.3C157.397 30.28 158.197 30.15 158.977 29.91C159.757 29.67 160.447 29.32 161.047 28.86C161.667 28.4 162.157 27.84 162.517 27.18C162.897 26.5 163.087 25.73 163.087 24.87C163.087 23.81 162.747 22.99 162.067 22.41C161.407 21.83 160.567 21.35 159.547 20.97C158.527 20.57 157.427 20.22 156.247 19.92C155.087 19.6 153.997 19.19 152.977 18.69C151.957 18.19 151.107 17.53 150.427 16.71C149.767 15.89 149.437 14.78 149.437 13.38C149.437 12.68 149.587 12.02 149.887 11.4C150.207 10.76 150.677 10.2 151.297 9.72C151.917 9.24 152.687 8.86 153.607 8.58C154.527 8.3 155.597 8.16 156.817 8.16C158.097 8.16 159.197 8.27 160.117 8.49C161.057 8.69 161.827 8.93 162.427 9.21C163.147 9.51 163.757 9.86 164.257 10.26V13.8H164.137C163.557 12.06 162.647 10.74 161.407 9.84C160.167 8.92 158.737 8.46 157.117 8.46C156.177 8.46 155.337 8.58 154.597 8.82C153.857 9.06 153.227 9.39 152.707 9.81C152.207 10.21 151.827 10.67 151.567 11.19C151.307 11.71 151.177 12.25 151.177 12.81C151.177 13.85 151.527 14.67 152.227 15.27C152.947 15.85 153.837 16.34 154.897 16.74C155.957 17.14 157.107 17.51 158.347 17.85C159.587 18.19 160.737 18.62 161.797 19.14C162.857 19.66 163.737 20.34 164.437 21.18C165.157 22 165.517 23.1 165.517 24.48C165.517 25.58 165.267 26.52 164.767 27.3C164.267 28.08 163.607 28.72 162.787 29.22C161.967 29.7 161.017 30.05 159.937 30.27C158.857 30.49 157.737 30.6 156.577 30.6C153.437 30.6 150.917 29.99 149.017 28.77V25.11H149.317Z" fill="white"/>
<path d="M60.52 60.2C60.0667 60.2 59.8 60.12 59.72 59.96C59.64 59.8 59.6 59.5067 59.6 59.08V43.8C59.6 43.8 59.6133 43.6667 59.64 43.4C59.6667 43.1333 59.8933 43 60.32 43H63.76C65.44 43 66.8533 43.24 68 43.72C69.1733 44.1733 70.0533 45 70.64 46.2C71.2533 47.3733 71.56 49.0533 71.56 51.24C71.56 53.0533 71.3333 54.5467 70.88 55.72C70.4533 56.8667 69.8667 57.7733 69.12 58.44C68.4 59.08 67.5867 59.5333 66.68 59.8C65.8 60.0667 64.8933 60.2 63.96 60.2H60.52ZM59.2 71V43.8C59.2 43.5067 59.24 43.3067 59.32 43.2C59.4267 43.0667 59.6533 43 60 43H62.88C63.28 43 63.5067 43.1333 63.56 43.4C63.64 43.6667 63.68 43.8 63.68 43.8V70.2C63.68 70.4667 63.6133 70.6533 63.48 70.76C63.3467 70.8667 62.9733 70.9333 62.36 70.96C61.7467 70.9867 60.6933 71 59.2 71ZM63.68 56.08H64.48C64.9067 56.08 65.2667 55.9467 65.56 55.68C65.8533 55.3867 66.08 54.8533 66.24 54.08C66.4267 53.3067 66.52 52.1733 66.52 50.68C66.52 49.8267 66.4533 49.12 66.32 48.56C66.2133 48 66.0267 47.5867 65.76 47.32C65.52 47.0267 65.1867 46.88 64.76 46.88H63.68V56.08ZM73.1453 71V44.96C73.1453 44.2933 73.212 43.8267 73.3453 43.56C73.4786 43.2933 73.8653 43.1333 74.5053 43.08C75.1453 43.0267 76.212 43 77.7053 43V70.2C77.7053 70.4667 77.6386 70.6533 77.5053 70.76C77.372 70.8667 76.9853 70.9333 76.3453 70.96C75.732 70.9867 74.6653 71 73.1453 71ZM80.0184 71C79.8584 70.8133 79.7118 70.5867 79.5784 70.32C79.4718 70.0267 79.4184 69.68 79.4184 69.28C79.4184 68.9867 79.4451 68.6933 79.4984 68.4C79.5518 68.08 79.6451 67.7467 79.7784 67.4L88.0184 46.96H81.7784C81.5118 46.96 81.2051 46.9733 80.8584 47C80.5118 47.0267 80.1918 47.08 79.8984 47.16V43.84C79.8984 43.28 80.1784 43 80.7384 43H92.7384C92.8718 43.1867 92.9651 43.3867 93.0184 43.6C93.0984 43.7867 93.1384 44.0533 93.1384 44.4C93.1384 45.0133 93.0051 45.6533 92.7384 46.32L84.2984 67.04H90.4984C91.0051 67.04 91.4851 67.0133 91.9384 66.96C92.3918 66.9067 92.8051 66.8 93.1784 66.64V70.2C93.1784 70.44 93.1251 70.64 93.0184 70.8C92.9118 70.9333 92.6984 71 92.3784 71H80.0184ZM95.0575 71C94.8975 70.8133 94.7508 70.5867 94.6175 70.32C94.5108 70.0267 94.4575 69.68 94.4575 69.28C94.4575 68.9867 94.4842 68.6933 94.5375 68.4C94.5908 68.08 94.6842 67.7467 94.8175 67.4L103.058 46.96H96.8175C96.5508 46.96 96.2442 46.9733 95.8975 47C95.5508 47.0267 95.2308 47.08 94.9375 47.16V43.84C94.9375 43.28 95.2175 43 95.7775 43H107.778C107.911 43.1867 108.004 43.3867 108.058 43.6C108.138 43.7867 108.178 44.0533 108.178 44.4C108.178 45.0133 108.044 45.6533 107.778 46.32L99.3375 67.04H105.538C106.044 67.04 106.524 67.0133 106.978 66.96C107.431 66.9067 107.844 66.8 108.218 66.64V70.2C108.218 70.44 108.164 70.64 108.058 70.8C107.951 70.9333 107.738 71 107.418 71H95.0575ZM111.897 71.08C111.603 71.08 111.19 71.0667 110.657 71.04C110.123 71.0133 109.59 70.9733 109.057 70.92L115.737 43.76C115.843 43.2 116.443 42.92 117.537 42.92C117.91 42.92 118.283 42.9333 118.657 42.96C119.057 42.9867 119.39 43.0267 119.657 43.08L126.337 70.28C126.39 70.5467 126.297 70.7467 126.057 70.88C125.817 71.0133 125.243 71.08 124.337 71.08C124.043 71.08 123.683 71.0667 123.257 71.04C122.83 71.04 122.323 71.0267 121.737 71L118.817 56.88C118.683 56.16 118.55 55.3867 118.417 54.56C118.283 53.7067 118.163 52.8267 118.057 51.92C117.95 51.0133 117.857 50.1467 117.777 49.32C117.697 50.1467 117.59 51.0133 117.457 51.92C117.35 52.8267 117.23 53.7067 117.097 54.56C116.99 55.3867 116.857 56.16 116.697 56.88L113.937 70.24C113.883 70.5067 113.75 70.72 113.537 70.88C113.35 71.0133 112.803 71.08 111.897 71.08ZM113.617 64.64V60.6H122.657V64.64H113.617ZM142.247 71V44.96C142.247 44.2933 142.314 43.8267 142.447 43.56C142.58 43.2933 142.967 43.1333 143.607 43.08C144.247 43.0267 145.314 43 146.807 43V70.2C146.807 70.4667 146.74 70.6533 146.607 70.76C146.474 70.8667 146.087 70.9333 145.447 70.96C144.834 70.9867 143.767 71 142.247 71Z" fill="white"/>
<path d="M128.958 60.2C128.504 60.2 128.238 60.12 128.158 59.96C128.078 59.8 128.038 59.5067 128.038 59.08V43.8C128.038 43.8 128.051 43.6667 128.078 43.4C128.104 43.1333 128.331 43 128.758 43H132.198C133.878 43 135.291 43.24 136.438 43.72C137.611 44.1733 138.491 45 139.078 46.2C139.691 47.3733 139.998 49.0533 139.998 51.24C139.998 53.0533 139.771 54.5467 139.318 55.72C138.891 56.8667 138.304 57.7733 137.558 58.44C136.838 59.08 136.024 59.5333 135.118 59.8C134.238 60.0667 133.331 60.2 132.398 60.2H128.958ZM127.638 71V43.8C127.638 43.8 127.664 43.6667 127.718 43.4C127.798 43.1333 128.038 43 128.438 43H131.318C131.718 43 131.944 43.1333 131.998 43.4C132.078 43.6667 132.118 43.8 132.118 43.8V70.2C132.118 70.4667 132.051 70.6533 131.918 70.76C131.784 70.8667 131.398 70.9333 130.758 70.96C130.144 70.9867 129.104 71 127.638 71ZM138.318 71.12C137.971 71.12 137.571 71.1067 137.118 71.08C136.664 71.0533 136.184 71.0267 135.678 71C135.624 68.6533 135.424 66.72 135.078 65.2C134.731 63.6533 134.331 62.4533 133.878 61.6C133.451 60.72 133.064 60.1067 132.718 59.76C132.398 59.3867 132.238 59.2 132.238 59.2C132.238 59.2 132.198 59.1067 132.118 58.92C132.038 58.7333 132.171 58.5467 132.518 58.36L135.038 56.92C135.464 56.92 135.744 57.0667 135.878 57.36C135.878 57.36 136.104 57.5867 136.558 58.04C137.011 58.4667 137.531 59.1867 138.118 60.2C138.731 61.1867 139.278 62.4933 139.758 64.12C140.264 65.7467 140.558 67.7467 140.638 70.12C140.638 70.4933 140.518 70.76 140.278 70.92C140.064 71.0533 139.411 71.12 138.318 71.12ZM132.118 56.08H132.918C133.344 56.08 133.704 55.9467 133.998 55.68C134.291 55.4133 134.518 54.92 134.678 54.2C134.864 53.4533 134.958 52.3867 134.958 51C134.958 50.04 134.891 49.2533 134.758 48.64C134.651 48.0267 134.464 47.5867 134.198 47.32C133.958 47.0267 133.624 46.88 133.198 46.88H132.118V56.08Z" fill="#009246"/>
<path d="M150.92 71.08C150.627 71.08 150.213 71.0667 149.68 71.04C149.147 71.0133 148.613 70.9733 148.08 70.92L154.76 43.76C154.867 43.2 155.467 42.92 156.56 42.92C156.933 42.92 157.307 42.9333 157.68 42.96C158.08 42.9867 158.413 43.0267 158.68 43.08L165.36 70.28C165.413 70.5467 165.32 70.7467 165.08 70.88C164.84 71.0133 164.267 71.08 163.36 71.08C163.067 71.08 162.707 71.0667 162.28 71.04C161.853 71.04 161.347 71.0267 160.76 71L157.84 56.88C157.707 56.16 157.573 55.3867 157.44 54.56C157.307 53.7067 157.187 52.8267 157.08 51.92C156.973 51.0133 156.88 50.1467 156.8 49.32C156.72 50.1467 156.613 51.0133 156.48 51.92C156.373 52.8267 156.253 53.7067 156.12 54.56C156.013 55.3867 155.88 56.16 155.72 56.88L152.96 70.24C152.907 70.5067 152.773 70.72 152.56 70.88C152.373 71.0133 151.827 71.08 150.92 71.08ZM152.64 64.64V60.6H161.68V64.64H152.64Z" fill="#CE2B37"/>
</svg>
