<svg width="30" height="30" viewBox="0 0 30 30" fill="none" xmlns="http://www.w3.org/2000/svg">
<path d="M20.8141 10.1825C20.123 9.48798 19.2999 8.93729 18.3927 8.56258C17.4855 8.18787 16.5124 7.99664 15.5301 8.00004C11.4146 8.00004 8.0603 11.3375 8.0603 15.4325C8.0603 16.745 8.40704 18.02 9.05528 19.145L8 23L11.9573 21.965C13.0503 22.5575 14.2789 22.8725 15.5301 22.8725C19.6457 22.8725 23 19.535 23 15.44C23 13.4525 22.2236 11.585 20.8141 10.1825ZM15.5301 21.6125C14.4146 21.6125 13.3216 21.3125 12.3643 20.75L12.1382 20.615L9.78643 21.23L10.4121 18.95L10.2613 18.7175C9.64152 17.7327 9.31242 16.5945 9.31156 15.4325C9.31156 12.0275 12.1005 9.25254 15.5226 9.25254C17.1809 9.25254 18.7412 9.89754 19.9095 11.0675C20.4881 11.6405 20.9465 12.322 21.2583 13.0726C21.5702 13.8232 21.7292 14.6279 21.7261 15.44C21.7412 18.845 18.9523 21.6125 15.5301 21.6125ZM18.9372 16.9925C18.7487 16.9025 17.8291 16.4525 17.6633 16.385C17.4899 16.325 17.3693 16.295 17.2412 16.475C17.1131 16.6625 16.7588 17.0825 16.6533 17.2025C16.5477 17.33 16.4347 17.345 16.2462 17.2475C16.0578 17.1575 15.4548 16.955 14.7462 16.325C14.1884 15.83 13.8191 15.2225 13.706 15.035C13.6005 14.8475 13.691 14.75 13.7889 14.6525C13.8719 14.57 13.9774 14.435 14.0678 14.33C14.1583 14.225 14.196 14.1425 14.2563 14.0225C14.3166 13.895 14.2864 13.79 14.2412 13.7C14.196 13.61 13.8191 12.695 13.6683 12.32C13.5176 11.96 13.3593 12.005 13.2462 11.9975H12.8844C12.7563 11.9975 12.5603 12.0425 12.3869 12.23C12.2211 12.4175 11.7387 12.8675 11.7387 13.7825C11.7387 14.6975 12.4095 15.5825 12.5 15.7025C12.5905 15.83 13.8191 17.705 15.6884 18.5075C16.1332 18.7025 16.4799 18.815 16.7513 18.8975C17.196 19.04 17.603 19.0175 17.9271 18.9725C18.2889 18.92 19.0352 18.5225 19.1859 18.0875C19.3442 17.6525 19.3442 17.285 19.2915 17.2025C19.2387 17.12 19.1256 17.0825 18.9372 16.9925Z" fill="white"/>
<rect x="3.5" y="3.5" width="24" height="24" rx="9.5" stroke="white"/>
</svg>
